<?xml version="1.0" encoding="UTF-8" standalone="no"?>
<svg
   xmlns:dc="http://purl.org/dc/elements/1.1/"
   xmlns:cc="http://creativecommons.org/ns#"
   xmlns:rdf="http://www.w3.org/1999/02/22-rdf-syntax-ns#"
   xmlns:svg="http://www.w3.org/2000/svg"
   xmlns="http://www.w3.org/2000/svg"
   id="svg3799"
   height="64"
   width="64"
   version="1.1">
  <defs
     id="defs3801">
    <marker
       style="overflow:visible"
       id="EmptyTriangleOutL"
       orient="auto"
       refY="0"
       refX="0">
      <path
         style="fill:#ffffff;fill-rule:evenodd;stroke:#000000;stroke-width:1.00000003pt"
         id="path4487"
         transform="matrix(0.8,0,0,0.8,-4.8,0)"
         d="M 5.77,0 -2.88,5 V -5 Z" />
    </marker>
    <marker
       style="overflow:visible"
       id="DotS"
       orient="auto"
       refY="0"
       refX="0">
      <path
         style="fill-rule:evenodd;stroke:#000000;stroke-width:1.00000003pt"
         id="path4394"
         transform="matrix(0.2,0,0,0.2,1.48,0.2)"
         d="m -2.5,-1 c 0,2.76 -2.24,5 -5,5 -2.76,0 -5,-2.24 -5,-5 0,-2.76 2.24,-5 5,-5 2.76,0 5,2.24 5,5 z" />
    </marker>
    <marker
       style="overflow:visible"
       id="DotL"
       orient="auto"
       refY="0"
       refX="0">
      <path
         style="fill-rule:evenodd;stroke:#000000;stroke-width:1.00000003pt"
         id="path4388"
         transform="matrix(0.8,0,0,0.8,5.92,0.8)"
         d="m -2.5,-1 c 0,2.76 -2.24,5 -5,5 -2.76,0 -5,-2.24 -5,-5 0,-2.76 2.24,-5 5,-5 2.76,0 5,2.24 5,5 z" />
    </marker>
    <marker
       style="overflow:visible"
       id="Tail"
       orient="auto"
       refY="0"
       refX="0">
      <g
         id="g4363"
         transform="scale(-1.2)">
        <path
           style="fill:none;stroke:#000000;stroke-width:0.80000001;stroke-linecap:round"
           id="path4365"
           d="M -3.8048674,-3.9585227 0.54352094,0" />
        <path
           style="fill:none;stroke:#000000;stroke-width:0.80000001;stroke-linecap:round"
           id="path4367"
           d="M -1.2866832,-3.9585227 3.0617053,0" />
        <path
           style="fill:none;stroke:#000000;stroke-width:0.80000001;stroke-linecap:round"
           id="path4369"
           d="M 1.3053582,-3.9585227 5.6537466,0" />
        <path
           style="fill:none;stroke:#000000;stroke-width:0.80000001;stroke-linecap:round"
           id="path4371"
           d="M -3.8048674,4.1775838 0.54352094,0.21974226" />
        <path
           style="fill:none;stroke:#000000;stroke-width:0.80000001;stroke-linecap:round"
           id="path4373"
           d="M -1.2866832,4.1775838 3.0617053,0.21974226" />
        <path
           style="fill:none;stroke:#000000;stroke-width:0.80000001;stroke-linecap:round"
           id="path4375"
           d="M 1.3053582,4.1775838 5.6537466,0.21974226" />
      </g>
    </marker>
    <marker
       style="overflow:visible"
       id="Arrow1Sstart"
       orient="auto"
       refY="0"
       refX="0">
      <path
         style="fill-rule:evenodd;stroke:#000000;stroke-width:1.00000003pt"
         id="path4339"
         transform="matrix(0.2,0,0,0.2,1.2,0)"
         d="M 0,0 5,-5 -12.5,0 5,5 Z" />
    </marker>
    <marker
       style="overflow:visible"
       id="Arrow1Lstart"
       orient="auto"
       refY="0"
       refX="0">
      <path
         style="fill-rule:evenodd;stroke:#000000;stroke-width:1.00000003pt"
         id="path4327"
         transform="matrix(0.8,0,0,0.8,10,0)"
         d="M 0,0 5,-5 -12.5,0 5,5 Z" />
    </marker>
  </defs>
  <metadata
     id="metadata3804">
    <rdf:RDF>
      <cc:Work
         rdf:about="">
        <dc:format>image/svg+xml</dc:format>
        <dc:type
           rdf:resource="http://purl.org/dc/dcmitype/StillImage" />
        <dc:title></dc:title>
      </cc:Work>
    </rdf:RDF>
  </metadata>
  <path
     id="path942"
     d="M 52.414032,19.847661 12.290095,4.5433308 8.6993617,59.742554 58.61236,49.151114"
     style="fill:none;stroke:#44aa00;stroke-width:2;stroke-linecap:butt;stroke-linejoin:miter;stroke-opacity:1" />
  <circle
     style="opacity:1;fill:#aa0000;stroke:none;stroke-width:3;stroke-miterlimit:4;stroke-dasharray:none"
     id="circle946"
     cx="12.200462"
     cy="5.9212298"
     r="6.0746961" />
  <path
     id="path940"
     d="M 52.414032,19.84766 C 14.898143,5.5381094 -7.722216,63.239742 56.907745,49.512829"
     style="fill:none;stroke:#000000;stroke-width:6;stroke-linecap:round;stroke-linejoin:miter;stroke-miterlimit:4;stroke-dasharray:none;stroke-opacity:1" />
  <circle
     style="opacity:1;fill:#aa0000;stroke:none;stroke-width:3;stroke-miterlimit:4;stroke-dasharray:none"
     id="circle948"
     cx="52.414032"
     cy="19.84766"
     r="6.0746961" />
  <circle
     style="opacity:1;fill:#aa0000;stroke:none;stroke-width:3;stroke-miterlimit:4;stroke-dasharray:none"
     id="circle950"
     cx="8.6993618"
     cy="58.452354"
     r="6.0746961" />
  <circle
     r="6.0746961"
     cy="49.512829"
     cx="56.907745"
     id="path944"
     style="opacity:1;fill:#aa0000;stroke:none;stroke-width:3;stroke-miterlimit:4;stroke-dasharray:none" />
</svg>
